<svg width="42" height="42" viewBox="0 0 42 42" fill="none" xmlns="http://www.w3.org/2000/svg">
<path opacity="0.2" d="M39.75 21C39.75 24.7084 38.6503 28.3335 36.5901 31.4169C34.5298 34.5004 31.6014 36.9036 28.1753 38.3227C24.7492 39.7419 20.9792 40.1132 17.3421 39.3897C13.7049 38.6663 10.364 36.8805 7.74176 34.2583C5.11952 31.636 3.33376 28.2951 2.61028 24.6579C1.88681 21.0208 2.25812 17.2508 3.67727 13.8247C5.09641 10.3986 7.49965 7.47022 10.5831 5.40994C13.6665 3.34967 17.2916 2.25 21 2.25C25.9728 2.25 30.742 4.22544 34.2583 7.74175C37.7746 11.2581 39.75 16.0272 39.75 21Z" fill="white"/>
<path d="M21 0.6875C16.9826 0.6875 13.0554 1.87881 9.71499 4.11077C6.37462 6.34274 3.77111 9.51512 2.23371 13.2267C0.696301 16.9384 0.294046 21.0225 1.07781 24.9628C1.86157 28.903 3.79615 32.5224 6.6369 35.3631C9.47766 38.2039 13.097 40.1384 17.0372 40.9222C20.9775 41.706 25.0616 41.3037 28.7733 39.7663C32.4849 38.2289 35.6573 35.6254 37.8892 32.285C40.1212 28.9446 41.3125 25.0174 41.3125 21C41.3068 15.6145 39.1649 10.4513 35.3568 6.64317C31.5487 2.83507 26.3855 0.693187 21 0.6875ZM21 38.1875C17.6006 38.1875 14.2776 37.1795 11.4511 35.2909C8.62468 33.4023 6.42171 30.718 5.12083 27.5774C3.81995 24.4368 3.47958 20.9809 4.14276 17.6469C4.80595 14.3128 6.4429 11.2503 8.84661 8.8466C11.2503 6.44289 14.3128 4.80594 17.6469 4.14275C20.9809 3.47957 24.4368 3.81994 27.5774 5.12082C30.718 6.4217 33.4023 8.62467 35.2909 11.4511C37.1795 14.2776 38.1875 17.6006 38.1875 21C38.1823 25.5568 36.3699 29.9255 33.1477 33.1477C29.9255 36.3699 25.5568 38.1823 21 38.1875ZM14.75 21C14.75 22.3118 15.1627 23.5903 15.9297 24.6544C16.6967 25.7186 17.7791 26.5145 19.0236 26.9293C20.268 27.3441 21.6115 27.3568 22.8636 26.9657C24.1157 26.5746 25.213 25.7994 26 24.75C26.2489 24.4185 26.6193 24.1994 27.0297 24.141C27.4401 24.0826 27.857 24.1896 28.1885 24.4385C28.52 24.6874 28.7391 25.0578 28.7975 25.4682C28.8559 25.8786 28.7489 26.2954 28.5 26.627C27.3191 28.2006 25.6731 29.3629 23.795 29.9491C21.917 30.5354 19.9021 30.5159 18.0357 29.8935C16.1693 29.2711 14.546 28.0773 13.3957 26.4812C12.2454 24.885 11.6265 22.9674 11.6265 21C11.6265 19.0326 12.2454 17.115 13.3957 15.5188C14.546 13.9227 16.1693 12.7289 18.0357 12.1065C19.9021 11.4841 21.917 11.4646 23.795 12.0509C25.6731 12.6371 27.3191 13.7994 28.5 15.373C28.6233 15.5372 28.713 15.724 28.764 15.9228C28.815 16.1217 28.8264 16.3286 28.7975 16.5318C28.7686 16.735 28.6999 16.9306 28.5954 17.1072C28.4909 17.2839 28.3526 17.4383 28.1885 17.5615C28.0243 17.6848 27.8375 17.7745 27.6387 17.8255C27.4399 17.8766 27.2329 17.8879 27.0297 17.859C26.8265 17.8301 26.631 17.7614 26.4543 17.6569C26.2776 17.5524 26.1233 17.4142 26 17.25C25.213 16.2006 24.1157 15.4254 22.8636 15.0343C21.6115 14.6432 20.268 14.6559 19.0236 15.0707C17.7791 15.4855 16.6967 16.2814 15.9297 17.3456C15.1627 18.4097 14.75 19.6882 14.75 21Z" fill="white"/>
</svg>
